<svg width="24" height="24" viewBox="0 0 24 24" fill="none" xmlns="http://www.w3.org/2000/svg">
<path fill-rule="evenodd" clip-rule="evenodd" d="M17.9905 2.26478C18.4871 1.76822 19.1606 1.48926 19.8628 1.48926C20.5651 1.48926 21.2386 1.76822 21.7352 2.26478L21.2048 2.79519L21.7352 2.26481C22.2318 2.7614 22.5107 3.4349 22.5107 4.13716C22.5107 4.83697 22.2337 5.50823 21.7404 6.00431L11.4738 16.6457C11.2749 16.8519 10.9759 16.9267 10.7033 16.8386C10.4307 16.7504 10.2322 16.5147 10.1916 16.2311C10.1475 15.9223 9.94608 15.5414 9.60138 15.1988C9.25967 14.8593 8.84532 14.6262 8.47536 14.5508C8.21185 14.4972 7.99725 14.3065 7.91288 14.0512C7.82851 13.7959 7.8873 13.5149 8.06697 13.3148L17.9627 2.29404C17.9717 2.28404 17.981 2.27428 17.9905 2.26478ZM20.6745 3.32547C20.4593 3.1102 20.1673 2.98926 19.8628 2.98926C19.5643 2.98926 19.2777 3.10556 19.0637 3.31309L9.88945 13.5303C10.1714 13.7024 10.4314 13.9089 10.6587 14.1349C10.8529 14.3279 11.0337 14.5454 11.1883 14.7813L20.6651 4.95845C20.6674 4.95605 20.6698 4.95367 20.6721 4.9513C20.6729 4.95049 20.6737 4.94968 20.6745 4.94887C20.8898 4.73359 21.0107 4.44161 21.0107 4.13716C21.0107 3.83272 20.8898 3.54075 20.6745 3.32547Z" fill="#21272A"/>
<path fill-rule="evenodd" clip-rule="evenodd" d="M3.1875 18.3216C3.1875 16.4954 4.64282 15 6.46875 15C8.29468 15 9.75 16.4954 9.75 18.3216C9.75 20.6188 7.91497 22.5 5.625 22.5C4.11012 22.5 2.56344 21.7164 1.64778 20.4828C1.47886 20.2552 1.45265 19.9519 1.58002 19.6987C1.70739 19.4455 1.9666 19.2858 2.25 19.2858C2.41596 19.2858 2.66556 19.2083 2.86894 19.0324C3.05473 18.8717 3.1875 18.6433 3.1875 18.3216ZM6.46875 16.5C5.49343 16.5 4.6875 17.3015 4.6875 18.3216C4.6875 19.2612 4.21857 19.9346 3.62666 20.3375C4.21821 20.7547 4.937 21 5.625 21C7.06441 21 8.25 19.8127 8.25 18.3216C8.25 17.3015 7.44407 16.5 6.46875 16.5Z" fill="#21272A"/>
</svg>
