<svg width="24" height="24" viewBox="0 0 24 24" fill="none" xmlns="http://www.w3.org/2000/svg">
<path fill-rule="evenodd" clip-rule="evenodd" d="M5.43774 5.25557C7.68574 3.2631 10.5929 2.25 13.3786 2.25C15.765 2.25 18.1024 2.99537 19.8647 4.54637L19.8653 4.54686L19.8658 4.54735C22.3784 6.76753 22.3787 10.444 19.8666 12.6645C19.8663 12.6647 19.8661 12.6649 19.8658 12.6652L18.4469 13.9248C18.4469 13.9249 18.4468 13.9249 18.4468 13.9249C18.2494 14.1003 18.1961 14.269 18.1961 14.3906C18.1961 14.5123 18.2494 14.681 18.4469 14.8564L18.4481 14.8574L18.4492 14.8585C18.5763 14.9723 18.6408 15.0123 18.7009 15.0392C18.7712 15.0707 18.8827 15.105 19.1305 15.146L19.1318 15.1462L19.133 15.1464C19.154 15.1499 19.1767 15.1536 19.2008 15.1576C19.549 15.2143 20.1977 15.3201 20.6704 15.757L20.6718 15.7583L20.6732 15.7596C21.1204 16.1771 21.3519 16.7881 21.3708 17.3735C21.39 17.9687 21.191 18.6308 20.654 19.1052C18.6745 20.8647 15.9277 21.75 13.1817 21.75H13.0993L13.0966 21.75C10.3479 21.7301 7.53957 20.8234 5.43813 18.9651C1.18644 15.2073 1.18631 9.01349 5.43774 5.25557ZM13.3786 3.75C10.9425 3.75 8.39363 4.63989 6.43231 6.37843L6.4319 6.37879L6.4315 6.37915C2.85519 9.54001 2.85519 14.6803 6.4315 17.8412L6.43166 17.8413C8.22016 19.4229 10.6606 20.2318 13.1047 20.25H13.1817C15.6289 20.25 18.0004 19.4575 19.6583 17.9833L19.6595 17.9823L19.6606 17.9813C19.7977 17.8603 19.8794 17.6652 19.8716 17.4218C19.8634 17.1692 19.7605 16.9606 19.651 16.8573C19.5375 16.7536 19.3347 16.7016 18.885 16.6257C18.5942 16.5777 18.3333 16.5182 18.0875 16.408C17.8317 16.2934 17.6362 16.1439 17.4496 15.9768C16.9775 15.557 16.6961 14.9973 16.6961 14.3906C16.6961 13.7834 16.978 13.2232 17.4508 12.8033L18.8719 11.5417L18.8726 11.5411C20.7095 9.91792 20.7097 7.29529 18.8731 5.6719C17.4292 4.40134 15.4638 3.75 13.3786 3.75Z" fill="#21272A"/>
<path d="M6.75 11.25C7.57843 11.25 8.25 10.5784 8.25 9.75C8.25 8.92157 7.57843 8.25 6.75 8.25C5.92157 8.25 5.25 8.92157 5.25 9.75C5.25 10.5784 5.92157 11.25 6.75 11.25Z" fill="#21272A"/>
<path d="M7.125 16.0781C7.95343 16.0781 8.625 15.4066 8.625 14.5781C8.625 13.7497 7.95343 13.0781 7.125 13.0781C6.29657 13.0781 5.625 13.7497 5.625 14.5781C5.625 15.4066 6.29657 16.0781 7.125 16.0781Z" fill="#21272A"/>
<path d="M10.5 8.25C11.3284 8.25 12 7.57843 12 6.75C12 5.92157 11.3284 5.25 10.5 5.25C9.67157 5.25 9 5.92157 9 6.75C9 7.57843 9.67157 8.25 10.5 8.25Z" fill="#21272A"/>
<path d="M12 19.4531C13.2426 19.4531 14.25 18.4458 14.25 17.2031C14.25 15.9605 13.2426 14.9531 12 14.9531C10.7574 14.9531 9.75 15.9605 9.75 17.2031C9.75 18.4458 10.7574 19.4531 12 19.4531Z" fill="#21272A"/>
<path d="M15.375 8.25C16.2034 8.25 16.875 7.57843 16.875 6.75C16.875 5.92157 16.2034 5.25 15.375 5.25C14.5466 5.25 13.875 5.92157 13.875 6.75C13.875 7.57843 14.5466 8.25 15.375 8.25Z" fill="#21272A"/>
</svg>
