<?xml version="1.0" encoding="utf-8"?>
<!-- Uploaded to: SVG Repo, www.svgrepo.com, Generator: SVG Repo Mixer Tools -->
<svg fill="#000000" width="800px" height="800px" viewBox="0 -15.97 183.958 183.958" xmlns="http://www.w3.org/2000/svg">
  <g id="spray_can" data-name="spray can" transform="translate(-711.581 -1251.969)">
    <path id="Path_39" data-name="Path 39" d="M737.5,1277.072a4,4,0,1,0,5.657,0A4,4,0,0,0,737.5,1277.072Z"/>
    <path id="Path_40" data-name="Path 40" d="M733.966,1289.092a4,4,0,1,0,5.656,0A4,4,0,0,0,733.966,1289.092Z"/>
    <path id="Path_41" data-name="Path 41" d="M721.238,1291.921a4,4,0,1,0,5.657,0A4,4,0,0,0,721.238,1291.921Z"/>
    <path id="Path_42" data-name="Path 42" d="M730.43,1301.113a4,4,0,1,0,5.657,0A4,4,0,0,0,730.43,1301.113Z"/>
    <path id="Path_43" data-name="Path 43" d="M712.752,1283.435a4,4,0,1,0,5.658,0A4,4,0,0,0,712.752,1283.435Z"/>
    <path id="Path_44" data-name="Path 44" d="M730.43,1285.557a4,4,0,1,0-5.657,0A4,4,0,0,0,730.43,1285.557Z"/>
    <path id="Path_45" data-name="Path 45" d="M889.883,1332.579l-4.95,4.95-67.882-67.882L822,1264.7l-5.656-5.657-7.57,7.569a31.27,31.27,0,0,0-21.529-6.986,35.488,35.488,0,0,0-17.843,6.216l-13.87-13.87-10.606,10.607,13.8,13.8a35.566,35.566,0,0,0-6.5,18.265,31.249,31.249,0,0,0,6.985,21.529l-8.63,8.63,5.658,5.657,5.656-5.657,67.882,67.883-5.657,5.656,5.658,5.657,65.76-65.761Zm-129.67-37.486a30.72,30.72,0,0,1,27.482-27.482,22.944,22.944,0,0,1,15.385,4.693l-38.174,38.172A22.95,22.95,0,0,1,760.213,1295.093Zm7.34,24.051,43.841-43.84,67.881,67.881-43.839,43.841Z"/>
  </g>
</svg>