<svg width="49" height="48" viewBox="0 0 49 48" fill="none" xmlns="http://www.w3.org/2000/svg">
<g clip-path="url(#clip0_1205_34451)">
<path d="M24.4895 48.0103C37.7444 48.0103 48.4895 37.2651 48.4895 24.0103C48.4895 10.7554 37.7444 0.0102539 24.4895 0.0102539C11.2347 0.0102539 0.489532 10.7554 0.489532 24.0103C0.489532 37.2651 11.2347 48.0103 24.4895 48.0103Z" fill="#77E0C4"/>
<path d="M36.7182 33.1634C36.4498 32.5813 35.9772 32.1188 35.3899 31.8622L28.8636 30.1089V27.4907L26.6356 29.234C26.3877 29.5128 26.0321 29.6725 25.6585 29.6725H24.5H23.3415C22.9679 29.6725 22.6123 29.5128 22.364 29.234L20.1364 27.4907V30.1089L13.6092 31.8622C13.0228 32.1188 12.5502 32.5813 12.2818 33.1634L10.5364 37.9634H24.5H38.4636L36.7182 33.1634Z" fill="#0A3631"/>
<path d="M31.9182 20.6215C31.9182 20.1367 31.4818 19.6519 31.0455 19.6519C30.6091 19.6519 30.6091 20.1367 30.6091 20.1367V19.6519C30.6012 15.7246 30.1623 13.1064 24.5 13.1064C18.8378 13.1064 18.3988 15.7246 18.3909 19.6519V23.1271L20.1364 27.4907L22.364 29.234C22.6123 29.5128 22.9679 29.6726 23.3415 29.6726H24.5H25.6586C26.0321 29.6726 26.3877 29.5128 26.636 29.234L28.8636 27.4907L30.257 24.0077C31.4988 23.9243 31.9182 22.0436 31.9182 20.6215Z" fill="#D7FCF9"/>
<path d="M18.3909 19.6358V20.1206C18.3909 20.1206 18.3909 19.6358 17.9545 19.6358C17.5182 19.6358 17.0818 20.1206 17.0818 20.6054C17.0818 22.0275 17.5012 23.9078 18.7431 23.9916L20.1364 27.4746L22.364 29.2179C22.6123 29.4972 22.9679 29.6564 23.3415 29.6564H24.5V13.0903C18.8377 13.0903 18.3988 15.7085 18.3909 19.6358Z" fill="white"/>
<path d="M30.726 15.8793C31.9169 14.1792 31.9182 12.2178 31.9182 12.2178H24.5H21.5039C20.3781 12.2178 19.3055 12.6973 18.5545 13.5365C17.8036 14.3752 17.4453 15.494 17.5701 16.6133L18.8343 24.2352L20.1364 27.4905L22.3636 29.2338C22.6123 29.5126 22.9679 29.6723 23.3415 29.6723H24.5H25.6585C26.0321 29.6723 26.3877 29.5126 26.636 29.2338L28.8636 27.4905L30.1657 24.2348L31.1642 16.9785C31.2405 16.6735 31.172 16.3497 30.9783 16.1018C30.908 16.0115 30.8199 15.94 30.726 15.8793ZM30.1727 19.6517L29.3 24.0153V24.0288L27.9909 26.647H27.5545L26.9803 24.9238C26.8023 24.3893 26.3017 24.0288 25.7384 24.0288H24.5H23.2616C22.6983 24.0288 22.1977 24.3893 22.0197 24.9238L21.4455 26.647H21.0091L19.7 24.0288V24.0153L18.8273 19.6517V15.7087C18.8273 15.7087 18.8321 18.0856 24.5 18.3085C24.7784 18.3194 25.066 18.3269 25.3727 18.3269C27.7077 18.3269 29.2066 17.5484 30.1727 16.5482V19.6517Z" fill="#14635B"/>
<path d="M18.8343 24.2348L20.1364 27.4905L22.3636 29.2338C22.6123 29.5126 22.9679 29.6723 23.3415 29.6723H24.5V24.0288H23.2616C22.6983 24.0288 22.1977 24.3893 22.0197 24.9238L21.4455 26.647H21.0091L19.7 24.0288V24.0153L18.8273 19.6517V15.7087C18.8273 15.7087 18.8321 18.0856 24.5 18.3085V12.2178H21.5039C20.3781 12.2178 19.3055 12.6973 18.5545 13.5365C17.8036 14.3752 17.4453 15.494 17.5701 16.6133" fill="#3E948B"/>
<path d="M22.7545 25.3086H26.2455C26.2455 25.3086 26.2455 26.6177 24.5 26.6177C22.7545 26.6177 22.7545 25.3086 22.7545 25.3086Z" fill="#D7FCF9"/>
<path d="M27.3364 18.5996C26.2725 18.5996 25.2087 19.3087 25.2087 19.3087H24.5H23.7905C23.7905 19.3087 22.7271 18.5996 21.6636 18.5996C19.8907 18.5996 18.8273 19.3087 18.8273 19.3087V19.6635H19.1816C19.1816 21.7907 19.8907 22.8542 21.7374 22.8542C23.5841 22.8542 23.9681 21.0816 23.9681 20.5899C23.9681 20.0981 24.5 20.0178 24.5 20.0178C24.5 20.0178 25.0319 20.0981 25.0319 20.5899C25.0319 21.0816 25.4159 22.8542 27.2626 22.8542C29.1093 22.8542 29.8184 21.7907 29.8184 19.6635H30.1727V19.3087C30.1727 19.3087 29.1089 18.5996 27.3364 18.5996Z" fill="#0A3631"/>
<path d="M21.6636 19.3086C20.6844 19.3086 19.8907 19.7476 19.8907 20.7268C19.8907 21.123 20.022 21.4874 20.2415 21.7823L22.5621 19.4618C22.2985 19.3592 21.9922 19.3086 21.6636 19.3086Z" fill="#3E948B"/>
<path d="M27.3708 19.3086C26.3916 19.3086 25.5983 19.7476 25.5983 20.7268C25.5983 21.123 25.7297 21.4874 25.9492 21.7823L28.2697 19.4618C28.0057 19.3592 27.699 19.3086 27.3708 19.3086Z" fill="#3E948B"/>
</g>
<defs>
<clipPath id="clip0_1205_34451">
<rect width="48" height="48" fill="white" transform="translate(0.5)"/>
</clipPath>
</defs>
</svg>
