<svg width="48" height="49" viewBox="0 0 48 49" fill="none" xmlns="http://www.w3.org/2000/svg">
<rect y="0.5" width="48" height="48" rx="24" fill="#F2F4F8"/>
<path d="M20.534 24.57C20.6569 24.5175 20.7892 24.4903 20.9228 24.4898C21.0565 24.4893 21.1889 24.5156 21.3122 24.5672C21.4355 24.6188 21.5473 24.6945 21.6408 24.79C21.7344 24.8855 21.8078 24.9988 21.8568 25.1231C21.9058 25.2475 21.9294 25.3804 21.9262 25.514C21.9229 25.6477 21.8929 25.7793 21.8379 25.9011C21.7829 26.023 21.7041 26.1325 21.606 26.2234C21.508 26.3142 21.3927 26.3845 21.267 26.43C20.5985 26.6934 20.0248 27.1519 19.6205 27.7458C19.2162 28.3397 19 29.0415 19 29.76V31.5C19 31.7652 19.1054 32.0196 19.2929 32.2071C19.4804 32.3946 19.7348 32.5 20 32.5H28C28.2652 32.5 28.5196 32.3946 28.7071 32.2071C28.8946 32.0196 29 31.7652 29 31.5V29.853C29.0001 29.1115 28.7749 28.3874 28.3541 27.7768C27.9334 27.1662 27.337 26.6979 26.644 26.434C26.5175 26.3901 26.4012 26.3213 26.3018 26.2316C26.2024 26.1419 26.1221 26.0332 26.0655 25.9119C26.009 25.7905 25.9773 25.6591 25.9725 25.5253C25.9677 25.3916 25.9897 25.2582 26.0374 25.1331C26.0851 25.008 26.1574 24.8938 26.25 24.7972C26.3427 24.7006 26.4538 24.6235 26.5767 24.5706C26.6997 24.5177 26.832 24.4901 26.9659 24.4893C27.0998 24.4885 27.2324 24.5146 27.356 24.566C28.4276 24.9742 29.3499 25.6983 30.0006 26.6425C30.6514 27.5867 30.9999 28.7063 31 29.853V31.5C31 32.2956 30.6839 33.0587 30.1213 33.6213C29.5587 34.1839 28.7956 34.5 28 34.5H20C19.2044 34.5 18.4413 34.1839 17.8787 33.6213C17.3161 33.0587 17 32.2956 17 31.5V29.76C17.0001 28.6402 17.3373 27.5463 17.9676 26.6206C18.5978 25.695 19.4921 24.9805 20.534 24.57ZM24 14.5C25.0609 14.5 26.0783 14.9214 26.8284 15.6716C27.5786 16.4217 28 17.4391 28 18.5V20.5C28 21.5609 27.5786 22.5783 26.8284 23.3284C26.0783 24.0786 25.0609 24.5 24 24.5C22.9391 24.5 21.9217 24.0786 21.1716 23.3284C20.4214 22.5783 20 21.5609 20 20.5V18.5C20 17.4391 20.4214 16.4217 21.1716 15.6716C21.9217 14.9214 22.9391 14.5 24 14.5V14.5ZM24 16.5C23.4696 16.5 22.9609 16.7107 22.5858 17.0858C22.2107 17.4609 22 17.9696 22 18.5V20.5C22 21.0304 22.2107 21.5391 22.5858 21.9142C22.9609 22.2893 23.4696 22.5 24 22.5C24.5304 22.5 25.0391 22.2893 25.4142 21.9142C25.7893 21.5391 26 21.0304 26 20.5V18.5C26 17.9696 25.7893 17.4609 25.4142 17.0858C25.0391 16.7107 24.5304 16.5 24 16.5Z" fill="#C1C7CD"/>
</svg>
