<svg width="24" height="24" viewBox="0 0 24 24" fill="none" xmlns="http://www.w3.org/2000/svg">
<path fill-rule="evenodd" clip-rule="evenodd" d="M6 10.5C5.17157 10.5 4.5 11.1716 4.5 12C4.5 12.8284 5.17157 13.5 6 13.5C6.82843 13.5 7.5 12.8284 7.5 12C7.5 11.1716 6.82843 10.5 6 10.5ZM3 12C3 10.3431 4.34315 9 6 9C7.65685 9 9 10.3431 9 12C9 13.6569 7.65685 15 6 15C4.34315 15 3 13.6569 3 12Z" fill="#21272A"/>
<path fill-rule="evenodd" clip-rule="evenodd" d="M18 3.75C17.1716 3.75 16.5 4.42157 16.5 5.25C16.5 6.07843 17.1716 6.75 18 6.75C18.8284 6.75 19.5 6.07843 19.5 5.25C19.5 4.42157 18.8284 3.75 18 3.75ZM15 5.25C15 3.59315 16.3431 2.25 18 2.25C19.6569 2.25 21 3.59315 21 5.25C21 6.90685 19.6569 8.25 18 8.25C16.3431 8.25 15 6.90685 15 5.25Z" fill="#21272A"/>
<path fill-rule="evenodd" clip-rule="evenodd" d="M18 17.25C17.1716 17.25 16.5 17.9216 16.5 18.75C16.5 19.5784 17.1716 20.25 18 20.25C18.8284 20.25 19.5 19.5784 19.5 18.75C19.5 17.9216 18.8284 17.25 18 17.25ZM15 18.75C15 17.0931 16.3431 15.75 18 15.75C19.6569 15.75 21 17.0931 21 18.75C21 20.4069 19.6569 21.75 18 21.75C16.3431 21.75 15 20.4069 15 18.75Z" fill="#21272A"/>
<path fill-rule="evenodd" clip-rule="evenodd" d="M7.30714 12.7355C7.51021 12.3744 7.9675 12.2464 8.32852 12.4495L16.407 16.9935C16.768 17.1966 16.896 17.6539 16.6929 18.0149C16.4899 18.3759 16.0326 18.504 15.6716 18.3009L7.59313 13.7568C7.23211 13.5538 7.10407 13.0965 7.30714 12.7355Z" fill="#21272A"/>
<path fill-rule="evenodd" clip-rule="evenodd" d="M16.6929 5.98547C16.896 6.34649 16.768 6.80377 16.407 7.00684L8.32852 11.5509C7.9675 11.754 7.51021 11.6259 7.30714 11.2649C7.10407 10.9039 7.23211 10.4466 7.59313 10.2435L15.6716 5.69948C16.0326 5.49641 16.4899 5.62445 16.6929 5.98547Z" fill="#21272A"/>
</svg>
